<svg xmlns:dc="http://purl.org/dc/elements/1.1/" xmlns:cc="http://creativecommons.org/ns#" xmlns:rdf="http://www.w3.org/1999/02/22-rdf-syntax-ns#" xmlns:svg="http://www.w3.org/2000/svg" xmlns="http://www.w3.org/2000/svg" xmlns:sodipodi="http://sodipodi.sourceforge.net/DTD/sodipodi-0.dtd" xmlns:inkscape="http://www.inkscape.org/namespaces/inkscape" width="100" height="100" viewBox="0 0 80 80" version="1.1" id="svg2" inkscape:version="0.48.2 r9819" sodipodi:docname="blank.svg">
  <metadata id="metadata10">
    <rdf:RDF>
      <cc:Work rdf:about="">
        <dc:format>image/svg+xml</dc:format>
        <dc:type rdf:resource="http://purl.org/dc/dcmitype/StillImage"/>
        <dc:title/>
      </cc:Work>
    </rdf:RDF>
  </metadata>
  <defs id="defs8"/>
  <sodipodi:namedview pagecolor="#ffffff" bordercolor="#666666" borderopacity="1" objecttolerance="10" gridtolerance="10" guidetolerance="10" inkscape:pageopacity="0" inkscape:pageshadow="2" inkscape:window-width="1600" inkscape:window-height="853" id="namedview6" showgrid="true" inkscape:zoom="2.585" inkscape:cx="113.7989" inkscape:cy="82.643949" inkscape:window-x="-4" inkscape:window-y="-4" inkscape:window-maximized="1" inkscape:current-layer="svg2" inkscape:snap-grids="false" showguides="true" inkscape:guide-bbox="true">
    <inkscape:grid type="xygrid" id="grid3807"/>
  </sodipodi:namedview>
  <path style="fill:#000000;stroke:#000000;stroke-width:0.80000001px;stroke-linecap:butt;stroke-linejoin:miter;stroke-opacity:1" d="m 34.168577,72.679732 c 0.732888,0.470921 1.498069,0.760406 2.338684,0.621941 C 39.515192,72.80621 50.268187,68.143431 52.737145,65.162325 58.93823,57.674922 62.556374,44.415509 67.457426,34.502505 72.393345,24.518977 81.775807,11.192136 76.566968,8.4058101 74.014861,7.0406391 60.489511,17.153084 51.862106,20.059825 39.724432,24.149243 18.928341,33.321429 14.268165,28.046451 13.663527,27.362045 0.50600921,33.544911 1.5681697,36.540059 3.4176089,41.755223 8.8232623,46.856577 13.340933,49.99852 c 1.594012,1.108601 4.117766,-2.823083 5.592873,-1.560575 1.910929,1.635517 -1.641528,5.108856 -0.862892,7.500569 1.929325,5.926247 7.890239,9.742045 12.682896,13.726154 1.091895,0.907686 2.193287,2.230196 3.414767,3.015064 z M 31.922713,68.772387 C 27.55981,64.888958 21.425959,57.442519 19.999152,55.574473 18.865108,54.089729 22.795574,52.505085 22.669803,50.641029 22.552307,48.899645 20.621747,47.174757 19.577159,46.418701 17.44642,44.876502 13.97001,47.999799 13.97001,47.999799 10.516438,44.95138 6.3043188,40.870342 4.1004773,37.540331 c -1.1785272,-1.780758 3.606899,-3.38533 5.8418323,-3.275552 5.1517524,0.25305 7.2558984,10.287594 12.7034504,8.837306 5.213109,-1.387872 20.713485,-13.990735 27.787772,-19.894277 1.252316,-1.045065 5.655735,-1.419007 4.888847,0.02056 -3.729391,7.000617 -19.497609,12.989877 -27.05879,22.655022 -0.786871,1.00583 0.916792,2.469995 0.778943,3.739585 -0.271905,2.504248 -3.313003,4.385533 -3.090932,6.894691 0.408746,4.618379 4.6928,5.064369 7.844924,11.487371 0.296285,0.603732 -1.371469,1.214491 -1.873811,0.767355 z m 5.576798,0.651407 c -0.149096,-0.07968 -0.295227,-0.190813 -0.430974,-0.299811 -0.814477,-0.65399 -1.347333,-1.802198 -1.345552,-2.793764 8.33e-4,-0.464215 0.340106,-1.082505 0.799498,-1.149262 0.767352,-0.111508 1.01933,1.356122 1.788136,1.457119 3.718847,0.488541 7.626668,-1.906669 10.325589,-4.511342 9.134258,-8.815286 11.60051,-22.612651 16.505774,-34.320868 2.146656,-5.123785 3.336305,-11.782279 5.643826,-15.68639 0.409954,-0.693606 1.838049,-0.789546 2.403826,-0.215918 1.491636,1.512335 -0.08579,4.295944 -0.63892,6.346842 -2.676563,9.924118 -8.048353,18.93263 -12.741169,28.077551 -3.025382,5.895584 -5.10161,12.666777 -9.911651,17.224668 -3.233128,3.063643 -7.62051,7.138153 -11.937072,6.039821 -0.160158,-0.04075 -0.312216,-0.08897 -0.461311,-0.168646 z" id="path3914" inkscape:connector-curvature="0"/>
</svg>
